<svg width="800" height="400" xmlns="http://www.w3.org/2000/svg" viewBox="0 0 800 400" preserveAspectRatio="none">
  <rect width="800" height="400" fill="#f8f9fa"></rect>
  <g>
    <text x="50%" y="50%" font-family="Arial, sans-serif" font-size="24" text-anchor="middle" fill="#6c757d">Cow and Calf Image</text>
    <g transform="translate(300, 150)">
      <!-- Simple cow silhouette -->
      <path d="M100,80 C120,80 130,70 140,70 C150,70 160,80 180,80 C200,80 200,70 220,70 C240,70 240,80 260,80 C280,80 290,60 290,40 C290,20 280,0 260,0 C240,0 230,20 220,20 C210,20 200,0 180,0 C160,0 150,20 140,20 C130,20 120,0 100,0 C80,0 70,20 70,40 C70,60 80,80 100,80 Z" fill="#8B4513"/>
      <!-- Smaller calf silhouette -->
      <path d="M50,120 C60,120 65,115 70,115 C75,115 80,120 90,120 C100,120 100,115 110,115 C120,115 120,120 130,120 C140,120 145,110 145,100 C145,90 140,80 130,80 C120,80 115,90 110,90 C105,90 100,80 90,80 C80,80 75,90 70,90 C65,90 60,80 50,80 C40,80 35,90 35,100 C35,110 40,120 50,120 Z" fill="#A0522D"/>
    </g>
  </g>
</svg>