<svg width="120" height="120" viewBox="0 0 120 120" xmlns="http://www.w3.org/2000/svg">
  <!-- Robot Head -->
  <rect x="30" y="20" width="60" height="50" rx="10" fill="#4A90E2" stroke="#2A5082" stroke-width="2"/>
  
  <!-- Robot Eyes -->
  <circle cx="45" cy="40" r="8" fill="white" stroke="#2A5082" stroke-width="1"/>
  <circle cx="75" cy="40" r="8" fill="white" stroke="#2A5082" stroke-width="1"/>
  <circle cx="45" cy="40" r="4" fill="#2A5082"/>
  <circle cx="75" cy="40" r="4" fill="#2A5082"/>
  
  <!-- Robot Mouth -->
  <rect x="40" y="55" width="40" height="5" rx="2" fill="#2A5082"/>
  
  <!-- Robot Antenna -->
  <line x1="60" y1="20" x2="60" y2="10" stroke="#2A5082" stroke-width="2"/>
  <circle cx="60" cy="8" r="3" fill="#FF5252"/>
  
  <!-- Robot Body -->
  <rect x="40" y="70" width="40" height="30" rx="5" fill="#4A90E2" stroke="#2A5082" stroke-width="2"/>
  
  <!-- Robot Arms -->
  <rect x="15" y="75" width="25" height="8" rx="4" fill="#4A90E2" stroke="#2A5082" stroke-width="2"/>
  <rect x="80" y="75" width="25" height="8" rx="4" fill="#4A90E2" stroke="#2A5082" stroke-width="2"/>
  
  <!-- Robot Legs -->
  <rect x="45" y="100" width="10" height="15" rx="2" fill="#4A90E2" stroke="#2A5082" stroke-width="2"/>
  <rect x="65" y="100" width="10" height="15" rx="2" fill="#4A90E2" stroke="#2A5082" stroke-width="2"/>
  
  <!-- Robot Buttons -->
  <circle cx="50" cy="80" r="3" fill="#FF5252"/>
  <circle cx="60" cy="80" r="3" fill="#FFEB3B"/>
  <circle cx="70" cy="80" r="3" fill="#4CAF50"/>
</svg>